<svg width="21" height="20" viewBox="0 0 21 20" fill="none" xmlns="http://www.w3.org/2000/svg">
<path d="M0.767846 14.0215C0.0333359 14.4456 -0.218326 15.3848 0.205744 16.1193C0.629814 16.8538 1.56903 17.1054 2.30354 16.6814L0.767846 14.0215ZM20.7517 5.51094C20.9712 4.6917 20.4851 3.84963 19.6658 3.63011L6.31552 0.0529128C5.49628 -0.166602 4.65421 0.319571 4.43469 1.13881C4.21518 1.95805 4.70135 2.80013 5.52059 3.01964L17.3875 6.19938L14.2078 18.0663C13.9883 18.8855 14.4744 19.7276 15.2937 19.9471C16.1129 20.1666 16.955 19.6805 17.1745 18.8612L20.7517 5.51094ZM2.30354 16.6814L20.0362 6.44343L18.5005 3.78353L0.767846 14.0215L2.30354 16.6814Z" fill="black"/>
</svg>
