<svg width="18" height="15" viewBox="0 0 18 15" fill="none" xmlns="http://www.w3.org/2000/svg">
<path d="M16.1677 3.62804C16.8721 3.09968 17.5062 2.46566 17.9993 1.72596C17.3653 2.00775 16.6256 2.21909 15.8859 2.28954C16.6608 1.83163 17.2244 1.12716 17.5062 0.246566C16.8017 0.66925 15.9915 0.986263 15.1814 1.16238C14.4769 0.422684 13.5259 0 12.4692 0C10.4262 0 8.77069 1.65551 8.77069 3.69849C8.77069 3.98027 8.80592 4.26206 8.87637 4.54385C5.81191 4.36774 3.06446 2.88834 1.23283 0.66925C0.915816 1.1976 0.739697 1.83163 0.739697 2.5361C0.739697 3.80416 1.37372 4.93131 2.39521 5.60056C1.79641 5.56534 1.1976 5.42445 0.704473 5.14266V5.17788C0.704473 6.97429 1.97253 8.45368 3.66326 8.80592C3.38147 8.87637 3.02924 8.94681 2.71222 8.94681C2.46566 8.94681 2.25432 8.91159 2.00775 8.87637C2.46566 10.3558 3.83938 11.4125 5.45967 11.4477C4.19162 12.434 2.60655 13.0328 0.880592 13.0328C0.563579 13.0328 0.281789 12.9975 0 12.9623C1.62029 14.019 3.55759 14.6178 5.67101 14.6178C12.4692 14.6178 16.1677 9.01726 16.1677 4.12117C16.1677 3.94505 16.1677 3.80416 16.1677 3.62804Z" fill="black"/>
</svg>
